<svg preserveAspectRatio="xMidYMid meet" data-bbox="13.817 18.59 650.101 649.681" viewBox="0 0 680.81 680.81" xmlns:xlink="http://www.w3.org/1999/xlink" xmlns="http://www.w3.org/2000/svg" data-type="ugc" role="presentation" aria-hidden="true" aria-label="">

    <g>

        <defs>

            <linearGradient gradientUnits="userSpaceOnUse" y2="447.62" x2="473.59" y1="113.68" x1="38.59" id="ede82e48-258c-46af-bb79-b7efa92f78a2_comp-k0wfjrh1">

                <stop stop-color="#00a79d" offset="0"></stop>

                <stop stop-color="#00a5a0" offset=".15"></stop>

                <stop stop-color="#0a9ea5" offset=".34"></stop>

                <stop stop-color="#0693ad" offset=".55"></stop>

                <stop stop-color="#1384b6" offset=".77"></stop>

                <stop stop-color="#1e76bc" offset=".93"></stop>

            </linearGradient>

            <linearGradient xlink:href="#ede82e48-258c-46af-bb79-b7efa92f78a2_comp-k0wfjrh1" y2="497.55" x2="435.25" y1="163.62" x1=".26" id="71eeaaf5-4ce1-45cb-aaef-cf33911fd621_comp-k0wfjrh1"></linearGradient>

            <linearGradient xlink:href="#ede82e48-258c-46af-bb79-b7efa92f78a2_comp-k0wfjrh1" y2="587.02" x2="366.57" y1="253.08" x1="-68.42" id="c558b141-39b2-4b7a-91dc-35cf80ea70a3_comp-k0wfjrh1"></linearGradient>

            <linearGradient xlink:href="#ede82e48-258c-46af-bb79-b7efa92f78a2_comp-k0wfjrh1" y2="389.26" x2="518.38" y1="55.33" x1="83.39" id="f36236ea-f3e5-486e-a9e4-0467fbed7e4b_comp-k0wfjrh1"></linearGradient>

            <linearGradient xlink:href="#ede82e48-258c-46af-bb79-b7efa92f78a2_comp-k0wfjrh1" y2="668.49" x2="304.03" y1="334.55" x1="-130.96" id="0071eb62-d671-4e44-83b8-d3632313851a_comp-k0wfjrh1"></linearGradient>

            <linearGradient xlink:href="#ede82e48-258c-46af-bb79-b7efa92f78a2_comp-k0wfjrh1" y2="580.5" x2="371.57" y1="246.57" x1="-63.42" id="b6f38d24-0ec8-4840-ad26-73e2a252232c_comp-k0wfjrh1"></linearGradient>

            <linearGradient xlink:href="#ede82e48-258c-46af-bb79-b7efa92f78a2_comp-k0wfjrh1" y2="238.81" x2="633.88" y1="-95.12" x1="198.89" id="75860087-7508-431c-b1d2-867a71fb862e_comp-k0wfjrh1"></linearGradient>

            <linearGradient xlink:href="#ede82e48-258c-46af-bb79-b7efa92f78a2_comp-k0wfjrh1" y2="218.31" x2="649.62" y1="-115.63" x1="214.63" id="7e6d5a7f-68d8-41e1-a999-e06fadbf2a6a_comp-k0wfjrh1"></linearGradient>

            <linearGradient xlink:href="#ede82e48-258c-46af-bb79-b7efa92f78a2_comp-k0wfjrh1" y2="397.36" x2="512.16" y1="63.43" x1="77.17" id="c9d27a45-4d96-4b3f-b904-d6979bafdeaa_comp-k0wfjrh1"></linearGradient>

            <linearGradient xlink:href="#ede82e48-258c-46af-bb79-b7efa92f78a2_comp-k0wfjrh1" y2="306.25" x2="582.11" y1="-27.68" x1="147.11" id="4a377ec5-3538-425e-9bba-2f2bd55e36be_comp-k0wfjrh1"></linearGradient>

            <linearGradient xlink:href="#ede82e48-258c-46af-bb79-b7efa92f78a2_comp-k0wfjrh1" y2="299.75" x2="587.1" y1="-34.18" x1="152.11" id="8b074abf-bc29-413b-8ed5-0735b4e3cc4f_comp-k0wfjrh1"></linearGradient>

            <linearGradient xlink:href="#ede82e48-258c-46af-bb79-b7efa92f78a2_comp-k0wfjrh1" y2="489.44" x2="441.48" y1="155.51" x1="6.49" id="c09e84cf-ae56-4ce5-af19-0624e8a7ba70_comp-k0wfjrh1"></linearGradient>

            <linearGradient xlink:href="#ede82e48-258c-46af-bb79-b7efa92f78a2_comp-k0wfjrh1" y2="648.07" x2="319.7" y1="314.14" x1="-115.29" id="60b78c00-94f2-4e9e-a163-9471661807f1_comp-k0wfjrh1"></linearGradient>

            <linearGradient xlink:href="#ede82e48-258c-46af-bb79-b7efa92f78a2_comp-k0wfjrh1" y2="242.31" x2="631.19" y1="-91.62" x1="196.2" id="9b138fe1-cddc-4fe4-94c5-c8a011145721_comp-k0wfjrh1"></linearGradient>

            <linearGradient xlink:href="#ede82e48-258c-46af-bb79-b7efa92f78a2_comp-k0wfjrh1" y2="644.45" x2="322.48" y1="310.52" x1="-112.51" id="9ed2bc8b-8621-4280-b66f-27a7ebdb2c9d_comp-k0wfjrh1"></linearGradient>

        </defs>

        <path d="M520.5 615c28.86.13 52.59-22.91 52.64-51.12.05-28.55-23.33-52.15-51.73-52.2a51.91 51.91 0 0 0-52 51.77A51.37 51.37 0 0 0 520.5 615zM407 668.27c27.64.13 50.59-22.43 50.72-49.84s-22.81-50.11-50.43-50.11-50.42 22.9-50.13 50.26A50.37 50.37 0 0 0 407 668.27zM167.28 169.59c27.45-.11 50.26-23.13 49.94-50.4a49.88 49.88 0 0 0-49.85-49.38c-27.87 0-50.51 22.34-50.39 49.73a50.33 50.33 0 0 0 50.3 50.05zm49.42 394c0-27.72-21.72-49.85-49.18-50s-50.66 22.9-50.38 50.12a49.84 49.84 0 0 0 50.05 49.41 49.07 49.07 0 0 0 49.51-49.51zM106.82 341.75a46.52 46.52 0 0 0-93-.92c-.25 26.12 20.15 47 46.05 47.21a46.29 46.29 0 0 0 46.95-46.29zm254.85-276.9c0 26 20.28 46.27 46 46.07a46.66 46.66 0 0 0 46-45.81c.38-24.91-21-46.45-46.18-46.52-25.71-.08-45.85 20.26-45.82 46.26zm159.26 15.73c-21.95 0-38.52 16.66-38.64 38.79s17 39.48 39.13 39.44c21.11 0 39-17.89 39.15-39 .12-21.65-17.66-39.25-39.64-39.23zm116.43 384.14a37.8 37.8 0 0 0-37.43-38.05c-20.43-.21-37.86 17.32-37.75 37.94.12 20.87 17.28 38.28 37.62 38.16a37.9 37.9 0 0 0 37.56-38.05zm-9.47-159.07a35.87 35.87 0 1 0 36 35.94 35.57 35.57 0 0 0-36-35.94zm-347.27-214c14.66.19 27.45-12 27.74-26.47S296 38 281.45 37.85c-14.81-.18-27.37 11.85-27.65 26.49s12.09 27.12 26.82 27.3zm-170.45 127.2a22.34 22.34 0 0 0-21.49-22.5c-11.48-.33-21.92 10.16-21.89 22a21.87 21.87 0 0 0 21.84 22c11.37-.1 21.44-10.18 21.54-21.5zM300 617.75a19.12 19.12 0 0 0-19.24-19c-10.87.18-19.82 9.34-19.5 20a19.87 19.87 0 0 0 19.59 19c10.78.14 19.27-8.75 19.15-20zm300.62-380.81c11-.1 18.68-8.05 18.42-19.15-.24-10.35-9-18.45-19.82-18.22-10.19.23-18.57 8.53-18.67 18.5-.1 10.62 8.79 18.98 20.07 18.87zM88.26 481.66a16.89 16.89 0 0 0 17.44-16.37c.35-9.83-7.13-17.38-17.19-17.37-9.8 0-17.08 6.84-17.38 16.29-.3 9.85 7.07 17.36 17.13 17.45z" fill="url(#ede82e48-258c-46af-bb79-b7efa92f78a2_comp-k0wfjrh1)"></path>

        <path d="M520.5 615a51.37 51.37 0 0 1-51.14-51.55 51.91 51.91 0 0 1 52-51.77c28.4.05 51.78 23.65 51.73 52.2 0 28.22-23.73 51.26-52.59 51.12z" fill="url(#71eeaaf5-4ce1-45cb-aaef-cf33911fd621_comp-k0wfjrh1)"></path>

        <path d="M407 668.27a50.37 50.37 0 0 1-49.84-49.69c-.29-27.36 22.55-50.26 50.13-50.26s50.55 22.79 50.43 50.11S434.6 668.4 407 668.27z" fill="url(#c558b141-39b2-4b7a-91dc-35cf80ea70a3_comp-k0wfjrh1)"></path>

        <path d="M167.28 169.59a50.33 50.33 0 0 1-50.3-50c-.12-27.39 22.52-49.73 50.39-49.73a49.88 49.88 0 0 1 49.85 49.38c.32 27.22-22.49 50.24-49.94 50.35z" fill="url(#f36236ea-f3e5-486e-a9e4-0467fbed7e4b_comp-k0wfjrh1)"></path>

        <path d="M216.7 563.61a49.07 49.07 0 0 1-49.51 49.5 49.84 49.84 0 0 1-50-49.41c-.28-27.22 22.93-50.3 50.38-50.12s49.16 22.31 49.13 50.03z" fill="url(#0071eb62-d671-4e44-83b8-d3632313851a_comp-k0wfjrh1)"></path>

        <path d="M106.82 341.75a46.29 46.29 0 0 1-47 46.29c-25.9-.17-46.3-21.09-46-47.21a46.52 46.52 0 0 1 93 .92z" fill="url(#b6f38d24-0ec8-4840-ad26-73e2a252232c_comp-k0wfjrh1)"></path>

        <path d="M361.67 64.85c0-26 20.11-46.34 45.79-46.26 25.17.07 46.56 21.61 46.18 46.52a46.66 46.66 0 0 1-46 45.81c-25.64.2-45.94-20.08-45.97-46.07z" fill="url(#75860087-7508-431c-b1d2-867a71fb862e_comp-k0wfjrh1)"></path>

        <path d="M520.93 80.58c22 0 39.76 17.58 39.64 39.25-.12 21.09-18 38.94-39.15 39-22.13 0-39.24-17.21-39.13-39.44S499 80.6 520.93 80.58z" fill="url(#7e6d5a7f-68d8-41e1-a999-e06fadbf2a6a_comp-k0wfjrh1)"></path>

        <path d="M637.36 464.72a37.9 37.9 0 0 1-37.56 38c-20.34.12-37.5-17.29-37.62-38.16-.11-20.62 17.32-38.15 37.75-37.94a37.8 37.8 0 0 1 37.43 38.1z" fill="url(#c9d27a45-4d96-4b3f-b904-d6979bafdeaa_comp-k0wfjrh1)"></path>

        <path d="M627.89 305.65a35.87 35.87 0 1 1-35.71 36.25 35.59 35.59 0 0 1 35.71-36.25z" fill="url(#4a377ec5-3538-425e-9bba-2f2bd55e36be_comp-k0wfjrh1)"></path>

        <path d="M280.62 91.64c-14.73-.18-27.11-12.79-26.82-27.3s12.84-26.67 27.65-26.49c14.57.18 27.2 13 26.91 27.32s-13.08 26.66-27.74 26.47z" fill="url(#8b074abf-bc29-413b-8ed5-0735b4e3cc4f_comp-k0wfjrh1)"></path>

        <path d="M110.17 218.85c-.1 11.32-10.21 21.4-21.54 21.48a21.87 21.87 0 0 1-21.84-22c0-11.84 10.41-22.33 21.89-22a22.34 22.34 0 0 1 21.49 22.52z" fill="url(#c09e84cf-ae56-4ce5-af19-0624e8a7ba70_comp-k0wfjrh1)"></path>

        <path d="M300 617.75c.08 11.25-8.41 20.14-19.15 20a19.87 19.87 0 0 1-19.59-19c-.32-10.64 8.63-19.8 19.5-20a19.12 19.12 0 0 1 19.24 19z" fill="url(#60b78c00-94f2-4e9e-a163-9471661807f1_comp-k0wfjrh1)"></path>

        <path d="M600.62 236.94c-11.28.11-20.17-8.25-20.07-18.87.1-10 8.48-18.27 18.67-18.5 10.77-.23 19.58 7.87 19.82 18.22.26 11.1-7.39 19.05-18.42 19.15z" fill="url(#9b138fe1-cddc-4fe4-94c5-c8a011145721_comp-k0wfjrh1)"></path>

        <path d="M88.26 481.66c-10.06-.09-17.43-7.6-17.13-17.45.3-9.45 7.58-16.27 17.38-16.29 10.06 0 17.54 7.54 17.19 17.37a16.89 16.89 0 0 1-17.44 16.37z" fill="url(#9ed2bc8b-8621-4280-b66f-27a7ebdb2c9d_comp-k0wfjrh1)"></path>

        <path d="M282 215.53a39.12 39.12 0 0 1 15.62 3.13 40.83 40.83 0 0 1 21.52 21.52 39.12 39.12 0 0 1 3.13 15.62v185a5.12 5.12 0 0 1-1.74 4 5.6 5.6 0 0 1-3.82 1.56H305.6q-5.55 0-5.55-5.55v-185A17.79 17.79 0 0 0 282 237.75a17.06 17.06 0 0 0-12.5 5.25 17.45 17.45 0 0 0-5.21 12.84v185q0 5.55-5.55 5.55h-11.11q-5.56 0-5.56-5.55v-185a17.44 17.44 0 0 0-5.2-12.84 17.07 17.07 0 0 0-12.5-5.21 17.79 17.79 0 0 0-18.05 18.05v185c0 3.7-1.86 5.55-5.56 5.55h-11.11a5.57 5.57 0 0 1-3.81-1.56 5.12 5.12 0 0 1-1.74-4v-185a39.29 39.29 0 0 1 3.12-15.62 40.8 40.8 0 0 1 21.53-21.52 39.12 39.12 0 0 1 15.62-3.13 38.68 38.68 0 0 1 15.8 3.3 39.84 39.84 0 0 1 13 9.2 39.78 39.78 0 0 1 13-9.2 38.65 38.65 0 0 1 15.83-3.33z" fill="#706f6f"></path>

        <path d="M407.14 425.91a5.61 5.61 0 0 1 1.57 3.82v11.11c0 3.7-1.86 5.55-5.56 5.55h-41a10.68 10.68 0 0 1-11.11-11.11V221.09a5.6 5.6 0 0 1 1.56-3.82 5.12 5.12 0 0 1 4-1.74h11.11a6 6 0 0 1 5.55 5.56v203.08h29.86a5.12 5.12 0 0 1 4.02 1.74z" fill="#706f6f"></path>

        <path d="M491.68 267.26v-11.8a17.71 17.71 0 0 0-35.41 0v151a17.71 17.71 0 0 0 35.41 0v-64.91h-12.16q-5.55 0-5.55-5.56v-11.1c0-3.7 1.85-5.56 5.55-5.56h28.82c3.7 0 5.55 1.86 5.55 5.56v81.58a38.06 38.06 0 0 1-3.12 15.45 41.8 41.8 0 0 1-21.35 21.35 39.81 39.81 0 0 1-30.9 0 41.8 41.8 0 0 1-21.35-21.35 38.06 38.06 0 0 1-3.12-15.45v-151a38 38 0 0 1 3.12-15.47 41.8 41.8 0 0 1 21.35-21.35 39.7 39.7 0 0 1 30.9 0A41.8 41.8 0 0 1 510.77 240a38 38 0 0 1 3.12 15.45v11.8q0 5.55-5.55 5.55h-11.11c-3.71.01-5.55-1.8-5.55-5.54z" fill="#706f6f"></path>

    </g>

</svg>


